<svg width="26" height="28" viewBox="0 0 26 28" fill="none" xmlns="http://www.w3.org/2000/svg">
<path d="M0.9 22.4405V22.4404C0.900162 22.3126 0.92753 22.1864 0.980284 22.07C1.03292 21.9539 1.10964 21.8503 1.20533 21.766C1.95736 21.0835 2.61497 20.3037 3.16075 19.4473C3.76535 18.2636 4.12799 16.9713 4.22746 15.6459V11.6985V11.6983H4.32746C4.32324 9.60712 5.07701 7.5853 6.44914 6.00727C7.82127 4.42925 9.71879 3.40195 11.7902 3.11566L0.9 22.4405ZM0.9 22.4405V23.5283C0.9 23.767 0.994807 23.9959 1.16357 24.1646C1.33232 24.3334 1.56121 24.4282 1.79987 24.4282H24.0363C24.2749 24.4282 24.5038 24.3334 24.6726 24.1646C24.8413 23.9959 24.9361 23.767 24.9361 23.5283V22.4405V22.4404C24.936 22.3126 24.9086 22.1864 24.8558 22.07C24.8031 21.9537 24.7262 21.8499 24.6303 21.7656C23.8671 21.0852 23.1988 20.3053 22.6432 19.4469C22.0387 18.2634 21.6761 16.9712 21.5767 15.6459V11.6985C21.582 9.56698 20.8088 7.50684 19.4024 5.90519C18.0153 4.32561 16.1064 3.29918 14.0259 3.01207V2.06783C14.0259 1.7581 13.9029 1.46106 13.6839 1.24205C13.4648 1.02304 13.1678 0.9 12.8581 0.9C12.5483 0.9 12.2513 1.02304 12.0323 1.24205C11.8133 1.46106 11.6902 1.7581 11.6902 2.06783V3.02896L0.9 22.4405ZM21.1441 20.3822C21.657 21.195 22.2581 21.9482 22.9363 22.6285H2.90786C3.58602 21.9482 4.18709 21.195 4.69998 20.3822L4.70021 20.3824L4.70365 20.3759C5.48199 18.9166 5.93612 17.3065 6.03502 15.6556L6.0352 15.6556V15.6496V11.6983H6.03526L6.03514 11.6949C6.00387 10.7709 6.15886 9.85002 6.49089 8.98715C6.82291 8.12429 7.32518 7.33707 7.96777 6.67236C8.61037 6.00764 9.38016 5.47904 10.2313 5.11803C11.0824 4.75701 11.9975 4.57096 12.9221 4.57096C13.8466 4.57096 14.7617 4.75701 15.6128 5.11803C16.464 5.47904 17.2338 6.00765 17.8764 6.67236C18.5189 7.33707 19.0212 8.12429 19.3532 8.98715C19.6853 9.85002 19.8403 10.7709 19.809 11.6949L19.8089 11.6949V11.6983V15.6496H19.8088L19.8091 15.6556C19.908 17.3065 20.3621 18.9166 21.1405 20.3759L21.1402 20.376L21.1441 20.3822Z" fill="#292929" stroke="#292929" stroke-width="0.2"/>
<path d="M12.9596 27.0995L12.9604 27.0995C13.4879 27.0873 13.994 26.889 14.3894 26.5396C14.7847 26.1903 15.0438 25.7123 15.1207 25.1904L15.1376 25.0758H15.0218H10.8145H10.6986L10.7155 25.1904C10.7946 25.7265 11.0658 26.2157 11.4786 26.5669C11.8914 26.918 12.4177 27.1073 12.9596 27.0995Z" fill="#292929" stroke="#292929" stroke-width="0.2"/>
</svg>
