<svg width="24" height="24" viewBox="0 0 24 24" fill="none" xmlns="http://www.w3.org/2000/svg">
<path d="M11.0049 21C11.0049 20.6022 10.8468 20.2206 10.5655 19.9393C10.2842 19.658 9.90271 19.5 9.50488 19.5C9.10706 19.5 8.72553 19.658 8.44422 19.9393C8.16292 20.2206 8.00488 20.6022 8.00488 21H3.00488C2.73967 21 2.48531 20.8946 2.29778 20.7071C2.11024 20.5196 2.00488 20.2652 2.00488 20V4C2.00488 3.73478 2.11024 3.48043 2.29778 3.29289C2.48531 3.10536 2.73967 3 3.00488 3H8.00488C8.00488 3.39782 8.16292 3.77936 8.44422 4.06066C8.72553 4.34196 9.10706 4.5 9.50488 4.5C9.90271 4.5 10.2842 4.34196 10.5655 4.06066C10.8468 3.77936 11.0049 3.39782 11.0049 3H21.0049C21.2701 3 21.5245 3.10536 21.712 3.29289C21.8995 3.48043 22.0049 3.73478 22.0049 4V9.5C21.3418 9.5 20.706 9.76339 20.2371 10.2322C19.7683 10.7011 19.5049 11.337 19.5049 12C19.5049 12.663 19.7683 13.2989 20.2371 13.7678C20.706 14.2366 21.3418 14.5 22.0049 14.5V20C22.0049 20.2652 21.8995 20.5196 21.712 20.7071C21.5245 20.8946 21.2701 21 21.0049 21H11.0049ZM9.50488 10.5C9.90271 10.5 10.2842 10.342 10.5655 10.0607C10.8468 9.77936 11.0049 9.39782 11.0049 9C11.0049 8.60218 10.8468 8.22064 10.5655 7.93934C10.2842 7.65804 9.90271 7.5 9.50488 7.5C9.10706 7.5 8.72553 7.65804 8.44422 7.93934C8.16292 8.22064 8.00488 8.60218 8.00488 9C8.00488 9.39782 8.16292 9.77936 8.44422 10.0607C8.72553 10.342 9.10706 10.5 9.50488 10.5ZM9.50488 16.5C9.90271 16.5 10.2842 16.342 10.5655 16.0607C10.8468 15.7794 11.0049 15.3978 11.0049 15C11.0049 14.6022 10.8468 14.2206 10.5655 13.9393C10.2842 13.658 9.90271 13.5 9.50488 13.5C9.10706 13.5 8.72553 13.658 8.44422 13.9393C8.16292 14.2206 8.00488 14.6022 8.00488 15C8.00488 15.3978 8.16292 15.7794 8.44422 16.0607C8.72553 16.342 9.10706 16.5 9.50488 16.5Z" fill="#636466"/>
</svg>
