<svg width="42" height="42" viewBox="0 0 42 42" fill="none" xmlns="http://www.w3.org/2000/svg">
<rect width="42" height="42" rx="8" fill="#1580F8"/>
<g clip-path="url(#clip0_519_76390)">
<path d="M12.75 26.25H9.75C9.55109 26.25 9.36032 26.329 9.21967 26.4697C9.07902 26.6103 9 26.8011 9 27V30C9 30.1989 9.07902 30.3897 9.21967 30.5303C9.36032 30.671 9.55109 30.75 9.75 30.75H12.75C12.9489 30.75 13.1397 30.671 13.2803 30.5303C13.421 30.3897 13.5 30.1989 13.5 30V27C13.5 26.8011 13.421 26.6103 13.2803 26.4697C13.1397 26.329 12.9489 26.25 12.75 26.25ZM12.75 11.25H9.75C9.55109 11.25 9.36032 11.329 9.21967 11.4697C9.07902 11.6103 9 11.8011 9 12V15C9 15.1989 9.07902 15.3897 9.21967 15.5303C9.36032 15.671 9.55109 15.75 9.75 15.75H12.75C12.9489 15.75 13.1397 15.671 13.2803 15.5303C13.421 15.3897 13.5 15.1989 13.5 15V12C13.5 11.8011 13.421 11.6103 13.2803 11.4697C13.1397 11.329 12.9489 11.25 12.75 11.25ZM12.75 18.75H9.75C9.55109 18.75 9.36032 18.829 9.21967 18.9697C9.07902 19.1103 9 19.3011 9 19.5V22.5C9 22.6989 9.07902 22.8897 9.21967 23.0303C9.36032 23.171 9.55109 23.25 9.75 23.25H12.75C12.9489 23.25 13.1397 23.171 13.2803 23.0303C13.421 22.8897 13.5 22.6989 13.5 22.5V19.5C13.5 19.3011 13.421 19.1103 13.2803 18.9697C13.1397 18.829 12.9489 18.75 12.75 18.75ZM32.25 27H17.25C17.0511 27 16.8603 27.079 16.7197 27.2197C16.579 27.3603 16.5 27.5511 16.5 27.75V29.25C16.5 29.4489 16.579 29.6397 16.7197 29.7803C16.8603 29.921 17.0511 30 17.25 30H32.25C32.4489 30 32.6397 29.921 32.7803 29.7803C32.921 29.6397 33 29.4489 33 29.25V27.75C33 27.5511 32.921 27.3603 32.7803 27.2197C32.6397 27.079 32.4489 27 32.25 27ZM32.25 12H17.25C17.0511 12 16.8603 12.079 16.7197 12.2197C16.579 12.3603 16.5 12.5511 16.5 12.75V14.25C16.5 14.4489 16.579 14.6397 16.7197 14.7803C16.8603 14.921 17.0511 15 17.25 15H32.25C32.4489 15 32.6397 14.921 32.7803 14.7803C32.921 14.6397 33 14.4489 33 14.25V12.75C33 12.5511 32.921 12.3603 32.7803 12.2197C32.6397 12.079 32.4489 12 32.25 12ZM32.25 19.5H17.25C17.0511 19.5 16.8603 19.579 16.7197 19.7197C16.579 19.8603 16.5 20.0511 16.5 20.25V21.75C16.5 21.9489 16.579 22.1397 16.7197 22.2803C16.8603 22.421 17.0511 22.5 17.25 22.5H32.25C32.4489 22.5 32.6397 22.421 32.7803 22.2803C32.921 22.1397 33 21.9489 33 21.75V20.25C33 20.0511 32.921 19.8603 32.7803 19.7197C32.6397 19.579 32.4489 19.5 32.25 19.5Z" fill="white"/>
</g>
<defs>
<clipPath id="clip0_519_76390">
<rect width="24" height="24" fill="white" transform="translate(9 9)"/>
</clipPath>
</defs>
</svg>
