<svg width="42" height="42" viewBox="0 0 42 42" fill="none" xmlns="http://www.w3.org/2000/svg">
<rect width="42" height="42" rx="8" fill="#E7F2FF"/>
<path d="M15 22.5H12C11.1717 22.5 10.5 23.1717 10.5 24V27C10.5 27.8283 11.1717 28.5 12 28.5H15C15.8283 28.5 16.5 27.8283 16.5 27V24C16.5 23.1717 15.8283 22.5 15 22.5ZM22.5 22.5H19.5C18.6717 22.5 18 23.1717 18 24V27C18 27.8283 18.6717 28.5 19.5 28.5H22.5C23.3283 28.5 24 27.8283 24 27V24C24 23.1717 23.3283 22.5 22.5 22.5ZM30 22.5H27C26.1717 22.5 25.5 23.1717 25.5 24V27C25.5 27.8283 26.1717 28.5 27 28.5H30C30.8283 28.5 31.5 27.8283 31.5 27V24C31.5 23.1717 30.8283 22.5 30 22.5ZM15 13.5H12C11.1717 13.5 10.5 14.1717 10.5 15V18C10.5 18.8283 11.1717 19.5 12 19.5H15C15.8283 19.5 16.5 18.8283 16.5 18V15C16.5 14.1717 15.8283 13.5 15 13.5ZM22.5 13.5H19.5C18.6717 13.5 18 14.1717 18 15V18C18 18.8283 18.6717 19.5 19.5 19.5H22.5C23.3283 19.5 24 18.8283 24 18V15C24 14.1717 23.3283 13.5 22.5 13.5ZM30 13.5H27C26.1717 13.5 25.5 14.1717 25.5 15V18C25.5 18.8283 26.1717 19.5 27 19.5H30C30.8283 19.5 31.5 18.8283 31.5 18V15C31.5 14.1717 30.8283 13.5 30 13.5Z" fill="#1580F8"/>
</svg>
