<svg width="34" height="34" viewBox="0 0 34 34" fill="none" xmlns="http://www.w3.org/2000/svg">
<rect width="34" height="34" rx="4" fill="#E7F2FF"/>
<g clip-path="url(#clip0_339_25160)">
<path d="M11.5 20.5H9.5C9.36739 20.5 9.24021 20.5527 9.14645 20.6464C9.05268 20.7402 9 20.8674 9 21V23C9 23.1326 9.05268 23.2598 9.14645 23.3536C9.24021 23.4473 9.36739 23.5 9.5 23.5H11.5C11.6326 23.5 11.7598 23.4473 11.8536 23.3536C11.9473 23.2598 12 23.1326 12 23V21C12 20.8674 11.9473 20.7402 11.8536 20.6464C11.7598 20.5527 11.6326 20.5 11.5 20.5ZM11.5 10.5H9.5C9.36739 10.5 9.24021 10.5527 9.14645 10.6464C9.05268 10.7402 9 10.8674 9 11V13C9 13.1326 9.05268 13.2598 9.14645 13.3536C9.24021 13.4473 9.36739 13.5 9.5 13.5H11.5C11.6326 13.5 11.7598 13.4473 11.8536 13.3536C11.9473 13.2598 12 13.1326 12 13V11C12 10.8674 11.9473 10.7402 11.8536 10.6464C11.7598 10.5527 11.6326 10.5 11.5 10.5ZM11.5 15.5H9.5C9.36739 15.5 9.24021 15.5527 9.14645 15.6464C9.05268 15.7402 9 15.8674 9 16V18C9 18.1326 9.05268 18.2598 9.14645 18.3536C9.24021 18.4473 9.36739 18.5 9.5 18.5H11.5C11.6326 18.5 11.7598 18.4473 11.8536 18.3536C11.9473 18.2598 12 18.1326 12 18V16C12 15.8674 11.9473 15.7402 11.8536 15.6464C11.7598 15.5527 11.6326 15.5 11.5 15.5ZM24.5 21H14.5C14.3674 21 14.2402 21.0527 14.1464 21.1464C14.0527 21.2402 14 21.3674 14 21.5V22.5C14 22.6326 14.0527 22.7598 14.1464 22.8536C14.2402 22.9473 14.3674 23 14.5 23H24.5C24.6326 23 24.7598 22.9473 24.8536 22.8536C24.9473 22.7598 25 22.6326 25 22.5V21.5C25 21.3674 24.9473 21.2402 24.8536 21.1464C24.7598 21.0527 24.6326 21 24.5 21ZM24.5 11H14.5C14.3674 11 14.2402 11.0527 14.1464 11.1464C14.0527 11.2402 14 11.3674 14 11.5V12.5C14 12.6326 14.0527 12.7598 14.1464 12.8536C14.2402 12.9473 14.3674 13 14.5 13H24.5C24.6326 13 24.7598 12.9473 24.8536 12.8536C24.9473 12.7598 25 12.6326 25 12.5V11.5C25 11.3674 24.9473 11.2402 24.8536 11.1464C24.7598 11.0527 24.6326 11 24.5 11ZM24.5 16H14.5C14.3674 16 14.2402 16.0527 14.1464 16.1464C14.0527 16.2402 14 16.3674 14 16.5V17.5C14 17.6326 14.0527 17.7598 14.1464 17.8536C14.2402 17.9473 14.3674 18 14.5 18H24.5C24.6326 18 24.7598 17.9473 24.8536 17.8536C24.9473 17.7598 25 17.6326 25 17.5V16.5C25 16.3674 24.9473 16.2402 24.8536 16.1464C24.7598 16.0527 24.6326 16 24.5 16Z" fill="#1580F8"/>
</g>
<defs>
<clipPath id="clip0_339_25160">
<rect width="16" height="16" fill="white" transform="translate(9 9)"/>
</clipPath>
</defs>
</svg>
