<svg width="34" height="34" viewBox="0 0 34 34" fill="none" xmlns="http://www.w3.org/2000/svg">
<rect width="34" height="34" rx="4" fill="#1580F8"/>
<path d="M13 18H11C10.4478 18 10 18.4478 10 19V21C10 21.5522 10.4478 22 11 22H13C13.5522 22 14 21.5522 14 21V19C14 18.4478 13.5522 18 13 18ZM18 18H16C15.4478 18 15 18.4478 15 19V21C15 21.5522 15.4478 22 16 22H18C18.5522 22 19 21.5522 19 21V19C19 18.4478 18.5522 18 18 18ZM23 18H21C20.4478 18 20 18.4478 20 19V21C20 21.5522 20.4478 22 21 22H23C23.5522 22 24 21.5522 24 21V19C24 18.4478 23.5522 18 23 18ZM13 12H11C10.4478 12 10 12.4478 10 13V15C10 15.5522 10.4478 16 11 16H13C13.5522 16 14 15.5522 14 15V13C14 12.4478 13.5522 12 13 12ZM18 12H16C15.4478 12 15 12.4478 15 13V15C15 15.5522 15.4478 16 16 16H18C18.5522 16 19 15.5522 19 15V13C19 12.4478 18.5522 12 18 12ZM23 12H21C20.4478 12 20 12.4478 20 13V15C20 15.5522 20.4478 16 21 16H23C23.5522 16 24 15.5522 24 15V13C24 12.4478 23.5522 12 23 12Z" fill="white"/>
</svg>
