<svg width="40" height="40" viewBox="0 0 40 40" fill="none" xmlns="http://www.w3.org/2000/svg">
<rect width="40" height="40" rx="4" fill="#292929"/>
<path d="M31 19.9994H16.3076M11.1215 19.9994H9M11.1215 19.9994C11.1215 19.3415 11.3946 18.7105 11.8808 18.2452C12.367 17.78 13.0264 17.5186 13.7139 17.5186C14.4015 17.5186 15.0609 17.78 15.5471 18.2452C16.0332 18.7105 16.3064 19.3415 16.3064 19.9994C16.3064 20.6574 16.0332 21.2884 15.5471 21.7536C15.0609 22.2189 14.4015 22.4802 13.7139 22.4802C13.0264 22.4802 12.367 22.2189 11.8808 21.7536C11.3946 21.2884 11.1215 20.6574 11.1215 19.9994ZM31 27.5181H24.1645M24.1645 27.5181C24.1645 28.1762 23.8908 28.8079 23.4045 29.2732C22.9182 29.7386 22.2586 30 21.5709 30C20.8834 30 20.224 29.7375 19.7378 29.2723C19.2516 28.807 18.9785 28.176 18.9785 27.5181M24.1645 27.5181C24.1645 26.86 23.8908 26.2294 23.4045 25.764C22.9182 25.2987 22.2586 25.0373 21.5709 25.0373C20.8834 25.0373 20.224 25.2986 19.7378 25.7639C19.2516 26.2291 18.9785 26.8601 18.9785 27.5181M18.9785 27.5181H9M31 12.4808H27.3076M22.1215 12.4808H9M22.1215 12.4808C22.1215 11.8228 22.3946 11.1918 22.8808 10.7266C23.367 10.2614 24.0264 10 24.7139 10C25.0544 10 25.3915 10.0642 25.706 10.1888C26.0206 10.3135 26.3063 10.4962 26.5471 10.7266C26.7878 10.957 26.9788 11.2305 27.109 11.5314C27.2393 11.8324 27.3064 12.155 27.3064 12.4808C27.3064 12.8066 27.2393 13.1292 27.109 13.4302C26.9788 13.7311 26.7878 14.0046 26.5471 14.235C26.3063 14.4653 26.0206 14.6481 25.706 14.7728C25.3915 14.8974 25.0544 14.9616 24.7139 14.9616C24.0264 14.9616 23.367 14.7002 22.8808 14.235C22.3946 13.7697 22.1215 13.1387 22.1215 12.4808Z" stroke="white" stroke-width="2" stroke-miterlimit="10" stroke-linecap="round"/>
</svg>
