<svg width="24" height="24" viewBox="0 0 24 24" fill="none" xmlns="http://www.w3.org/2000/svg">
<circle cx="12" cy="12" r="11.5" stroke="#231C17"/>
<path fill-rule="evenodd" clip-rule="evenodd" d="M11.9992 18.1253L12.4799 17.5835C13.0254 16.9588 13.5161 16.366 13.9527 15.8022L14.3131 15.3268C15.8178 13.2993 16.5706 11.6902 16.5706 10.5009C16.5706 7.9622 14.5241 5.9043 11.9992 5.9043C9.47421 5.9043 7.42773 7.9622 7.42773 10.5009C7.42773 11.6902 8.1805 13.2993 9.68526 15.3268L10.0456 15.8022C10.6684 16.6002 11.3201 17.3746 11.9992 18.1253Z" stroke="#231C17" stroke-width="0.8" stroke-linecap="round" stroke-linejoin="round"/>
<path d="M12.0005 12.3798C13.0524 12.3798 13.9052 11.527 13.9052 10.4751C13.9052 9.4231 13.0524 8.57031 12.0005 8.57031C10.9485 8.57031 10.0957 9.4231 10.0957 10.4751C10.0957 11.527 10.9485 12.3798 12.0005 12.3798Z" stroke="#231C17" stroke-width="0.8" stroke-linecap="round" stroke-linejoin="round"/>
</svg>
