<svg width="31" height="24" viewBox="0 0 31 24" fill="none" xmlns="http://www.w3.org/2000/svg">
<path d="M15.0223 6.22623L5.14423 14.362V23.1428C5.14423 23.3701 5.23455 23.5882 5.39531 23.7489C5.55608 23.9097 5.77412 24 6.00147 24L12.0054 23.9845C12.232 23.9833 12.4489 23.8925 12.6087 23.7319C12.7686 23.5712 12.8583 23.3538 12.8583 23.1272V17.9993C12.8583 17.772 12.9486 17.5539 13.1094 17.3932C13.2702 17.2324 13.4882 17.1421 13.7155 17.1421H17.1445C17.3719 17.1421 17.5899 17.2324 17.7507 17.3932C17.9114 17.5539 18.0017 17.772 18.0017 17.9993V23.1235C18.0014 23.2363 18.0233 23.348 18.0662 23.4523C18.1091 23.5567 18.1722 23.6515 18.2519 23.7314C18.3315 23.8113 18.4261 23.8746 18.5303 23.9179C18.6345 23.9611 18.7462 23.9834 18.859 23.9834L24.8607 24C25.0881 24 25.3061 23.9097 25.4669 23.7489C25.6276 23.5882 25.718 23.3701 25.718 23.1428V14.3561L15.842 6.22623C15.7259 6.13264 15.5813 6.08161 15.4322 6.08161C15.283 6.08161 15.1384 6.13264 15.0223 6.22623ZM30.6256 11.756L26.1466 8.06394V0.642929C26.1466 0.472414 26.0788 0.308882 25.9583 0.18831C25.8377 0.0677371 25.6742 0 25.5036 0H22.5033C22.3328 0 22.1693 0.0677371 22.0487 0.18831C21.9281 0.308882 21.8604 0.472414 21.8604 0.642929V4.53318L17.0636 0.586673C16.6033 0.207869 16.0256 0.000757234 15.4295 0.000757234C14.8333 0.000757234 14.2557 0.207869 13.7954 0.586673L0.233329 11.756C0.168226 11.8098 0.114363 11.8759 0.0748186 11.9505C0.0352742 12.0251 0.010823 12.1068 0.00286219 12.1909C-0.00509867 12.275 0.00358682 12.3598 0.0284224 12.4406C0.053258 12.5213 0.0937569 12.5963 0.147605 12.6614L1.51383 14.3223C1.56753 14.3876 1.63358 14.4417 1.70821 14.4814C1.78283 14.5212 1.86456 14.5458 1.94871 14.5539C2.03287 14.562 2.11779 14.5534 2.19863 14.5287C2.27947 14.5039 2.35464 14.4635 2.41982 14.4096L15.0223 4.02956C15.1384 3.93597 15.283 3.88494 15.4322 3.88494C15.5813 3.88494 15.7259 3.93597 15.842 4.02956L28.445 14.4096C28.5101 14.4635 28.5852 14.504 28.6659 14.5288C28.7466 14.5537 28.8315 14.5623 28.9155 14.5544C28.9996 14.5464 29.0813 14.522 29.156 14.4824C29.2306 14.4429 29.2967 14.389 29.3505 14.3239L30.7167 12.663C30.7705 12.5976 30.8108 12.5221 30.8354 12.4411C30.8599 12.36 30.8682 12.2748 30.8597 12.1906C30.8513 12.1063 30.8262 12.0245 30.7861 11.9499C30.7459 11.8753 30.6914 11.8094 30.6256 11.756Z" fill="black"/>
</svg>
