<svg width="20" height="20" viewBox="0 0 20 20" fill="none" xmlns="http://www.w3.org/2000/svg">
<path d="M17.089 12.4422V16.8822C17.0888 17.5104 16.8391 18.1128 16.3949 18.557C15.9507 19.0013 15.3483 19.2509 14.72 19.2512H3.11904C2.8068 19.2511 2.49765 19.1892 2.20938 19.0693C1.9211 18.9493 1.65937 18.7735 1.43923 18.5521C1.21909 18.3307 1.04488 18.0679 0.926608 17.7789C0.808334 17.4899 0.748329 17.1804 0.750042 16.8682V5.2802C0.748184 4.96845 0.808217 4.65943 0.926663 4.37104C1.04511 4.08266 1.21961 3.82066 1.44006 3.60021C1.6605 3.37977 1.92251 3.20526 2.21089 3.08682C2.49927 2.96837 2.80829 2.90834 3.12004 2.9102H7.55904" stroke="white" stroke-width="1.5" stroke-linecap="round" stroke-linejoin="round"/>
<path d="M17.089 6.99486L13.004 2.90886M4.83398 13.8029V11.6379C4.83598 11.2809 4.97798 10.9379 5.22898 10.6849L14.761 1.15286C14.8876 1.02521 15.0382 0.923885 15.2042 0.854742C15.3702 0.785598 15.5482 0.75 15.728 0.75C15.9078 0.75 16.0858 0.785598 16.2518 0.854742C16.4177 0.923885 16.5684 1.02521 16.695 1.15286L18.846 3.30386C18.9739 3.43034 19.0754 3.58093 19.1447 3.74692C19.214 3.9129 19.2497 4.09099 19.2497 4.27086C19.2497 4.45073 19.214 4.62881 19.1447 4.7948C19.0754 4.96079 18.9739 5.11138 18.846 5.23786L9.31398 14.7699C9.06046 15.0215 8.71818 15.1634 8.36098 15.1649H6.19598C5.83476 15.1649 5.48833 15.0214 5.2329 14.7659C4.97748 14.5105 4.83398 14.1641 4.83398 13.8029Z" stroke="white" stroke-width="1.5" stroke-linecap="round" stroke-linejoin="round"/>
</svg>
