<svg width="24" height="24" viewBox="0 0 24 24" fill="none" xmlns="http://www.w3.org/2000/svg">
<path d="M6.66602 16.0026C6.66602 15.2954 6.94697 14.6171 7.44706 14.117C7.94716 13.6169 8.62544 13.3359 9.33268 13.3359H14.666C15.3733 13.3359 16.0515 13.6169 16.5516 14.117C17.0517 14.6171 17.3327 15.2954 17.3327 16.0026C17.3327 16.3562 17.1922 16.6954 16.9422 16.9454C16.6921 17.1955 16.353 17.3359 15.9994 17.3359H7.99935C7.64573 17.3359 7.30659 17.1955 7.05654 16.9454C6.80649 16.6954 6.66602 16.3562 6.66602 16.0026Z" stroke="#231C17" stroke-linejoin="round"/>
<path d="M12 10.668C13.1046 10.668 14 9.77254 14 8.66797C14 7.5634 13.1046 6.66797 12 6.66797C10.8954 6.66797 10 7.5634 10 8.66797C10 9.77254 10.8954 10.668 12 10.668Z" stroke="#231C17"/>
<circle cx="12" cy="12" r="11.5" stroke="#231C17"/>
</svg>
