<svg width="32" height="32" viewBox="0 0 32 32" fill="none" xmlns="http://www.w3.org/2000/svg">
<path d="M5.11988 16C5.11988 9.98399 9.98388 5.11999 15.9999 5.11999C22.0159 5.11999 26.8799 9.984 26.8799 16C26.8799 22.016 22.0159 26.88 15.9999 26.88C9.98388 26.88 5.11988 22.016 5.11988 16ZM25.5999 16C25.5999 10.688 21.3119 6.39999 15.9999 6.39999C10.6879 6.39999 6.39988 10.688 6.39988 16C6.39988 21.312 10.6879 25.6 15.9999 25.6C21.3119 25.6 25.5999 21.312 25.5999 16Z" fill="#1580F8"/>
<path d="M14.9121 21.312L20.2241 16L14.9121 10.688L15.8081 9.79199L22.0161 16L15.8081 22.208L14.9121 21.312Z" fill="#1580F8"/>
<path d="M21.1201 15.36L21.1201 16.64L10.2401 16.64L10.2401 15.36L21.1201 15.36Z" fill="#1580F8"/>
</svg>
