<svg width="31" height="32" viewBox="0 0 31 32" fill="none" xmlns="http://www.w3.org/2000/svg">
<circle cx="15.5" cy="16" r="15" stroke="#5C4F90"/>
<path d="M17.2968 16.9934H16.7968V17.4934V26.4037H13.9941V17.4865V16.9865H13.4941H10.8333V14.3021H13.4872H13.9872V13.8021V11.0982C13.9872 9.62966 14.4347 8.55422 15.1525 7.84595C15.8719 7.13605 16.9183 6.74043 18.2199 6.74043L18.2218 6.74042C18.9999 6.7374 19.7776 6.77048 20.5524 6.83955V9.1711H19.1189C18.2887 9.1711 17.6545 9.36859 17.2529 9.84615C16.8677 10.3043 16.7968 10.9089 16.7968 11.4622V13.809V14.309H17.2968H20.3752L20.0314 16.9934H17.2968Z" fill="#5C4F90" stroke="#5C4F90"/>
</svg>
