<svg width="20" height="24" viewBox="0 0 20 24" fill="none" xmlns="http://www.w3.org/2000/svg">
<path d="M17.7141 9.42857C17.7141 7.38262 16.9014 5.42046 15.4547 3.97375C14.008 2.52704 12.0458 1.71429 9.99986 1.71429C7.9539 1.71429 5.99175 2.52704 4.54504 3.97375C3.09833 5.42046 2.28557 7.38262 2.28557 9.42857C2.28557 12.5931 4.81757 16.7177 9.99986 21.6583C15.1821 16.7177 17.7141 12.5931 17.7141 9.42857ZM9.99986 24C3.71357 18.2863 0.571289 13.428 0.571289 9.42857C0.571289 6.92796 1.56465 4.52977 3.33285 2.76156C5.10105 0.993365 7.49925 0 9.99986 0C12.5005 0 14.8987 0.993365 16.6669 2.76156C18.4351 4.52977 19.4284 6.92796 19.4284 9.42857C19.4284 13.428 16.2861 18.2863 9.99986 24Z" fill="#292929"/>
<path d="M10.0713 12.85C10.9598 12.85 11.8119 12.4971 12.4401 11.8688C13.0683 11.2406 13.4213 10.3885 13.4213 9.5C13.4213 8.61153 13.0683 7.75944 12.4401 7.13119C11.8119 6.50295 10.9598 6.15 10.0713 6.15C9.18281 6.15 8.33073 6.50295 7.70248 7.13119C7.07423 7.75944 6.72129 8.61153 6.72129 9.5C6.72129 10.3885 7.07423 11.2406 7.70248 11.8688C8.33073 12.4971 9.18281 12.85 10.0713 12.85ZM10.0713 14.95C8.62586 14.95 7.23963 14.3758 6.21756 13.3537C5.19548 12.3317 4.62129 10.9454 4.62129 9.5C4.62129 8.05457 5.19548 6.66834 6.21756 5.64627C7.23963 4.62419 8.62586 4.05 10.0713 4.05C11.5167 4.05 12.9029 4.62419 13.925 5.64627C14.9471 6.66834 15.5213 8.05457 15.5213 9.5C15.5213 10.9454 14.9471 12.3317 13.925 13.3537C12.9029 14.3758 11.5167 14.95 10.0713 14.95Z" fill="#292929" stroke="#FFD900" stroke-width="0.1"/>
</svg>
