<svg width="24" height="24" viewBox="0 0 24 24" fill="none" xmlns="http://www.w3.org/2000/svg">
<g clip-path="url(#clip0_522_9681)">
<path fill-rule="evenodd" clip-rule="evenodd" d="M3.05577 1.59249C4.55349 0.10339 7.01973 0.367982 8.27378 2.04415L9.82688 4.11658C10.8483 5.48016 10.7573 7.38522 9.54505 8.59004L9.25216 8.88294C9.21908 9.00591 9.21571 9.13499 9.24231 9.25952C9.31984 9.76163 9.7395 10.8249 11.4969 12.5725C13.2543 14.32 14.3249 14.7384 14.8344 14.8172C14.9627 14.8445 15.0956 14.8407 15.2221 14.8061L15.7242 14.3065C16.8023 13.2358 18.4563 13.0352 19.7903 13.7601L22.1409 15.0399C24.1555 16.1328 24.6637 18.8698 23.0147 20.5102L21.2659 22.2479C20.7146 22.7956 19.9737 23.2522 19.0704 23.3371C16.8429 23.5451 11.6532 23.2792 6.19765 17.8557C1.1064 12.7928 0.129253 8.37714 0.00495589 6.20132C-0.0565773 5.10111 0.462763 4.17073 1.12486 3.51356L3.05577 1.59249ZM6.79698 3.15051C6.17304 2.31735 5.01129 2.2509 4.35658 2.90192L2.42444 4.82175C2.01832 5.22541 1.82388 5.67091 1.84849 6.09672C1.94694 7.8258 2.73457 11.8095 7.49969 16.5475C12.4986 21.5169 17.1149 21.6658 18.8993 21.4985C19.2636 21.4652 19.6254 21.2757 19.9638 20.9397L21.7114 19.2008C22.4227 18.4944 22.2664 17.2071 21.2597 16.6607L18.9092 15.3821C18.2594 15.0301 17.4988 15.1458 17.0263 15.6159L16.4663 16.1734L15.8141 15.5187C16.4663 16.1734 16.4651 16.1746 16.4638 16.1746L16.4626 16.1771L16.4589 16.1808L16.4503 16.1882L16.4318 16.2054C16.3795 16.2531 16.3236 16.2968 16.2645 16.3358C16.166 16.4011 16.0356 16.4737 15.8719 16.534C15.5396 16.6583 15.099 16.7247 14.5551 16.641C13.4881 16.4774 12.0741 15.75 10.1948 13.8819C8.31685 12.0137 7.58338 10.6083 7.41847 9.54257C7.33355 8.99862 7.40124 8.55804 7.52677 8.22577C7.59638 8.03903 7.69524 7.86456 7.81967 7.70889L7.85905 7.66581L7.87628 7.64735L7.88366 7.63997L7.88735 7.63628L7.88981 7.63382L8.24424 7.28185C8.77097 6.75635 8.84481 5.88627 8.34885 5.22295L6.79698 3.15051Z" fill="#292929"/>
</g>
<defs>
<clipPath id="clip0_522_9681">
<rect width="24" height="22.7677" fill="white" transform="translate(0 0.616211)"/>
</clipPath>
</defs>
</svg>
