<svg width="24" height="24" viewBox="0 0 24 24" fill="none" xmlns="http://www.w3.org/2000/svg">
<path fill-rule="evenodd" clip-rule="evenodd" d="M23.9988 11.6923C23.9988 18.1478 18.7246 23.3822 12.2184 23.3822C10.1526 23.3822 8.21116 22.8549 6.52308 21.9282L0 24L2.12609 17.7279C1.05339 15.9662 0.435595 13.8992 0.435595 11.6911C0.435595 5.23439 5.7098 0 12.2172 0C18.7246 0.00120664 23.9988 5.2356 23.9988 11.6923ZM12.2184 1.86305C6.75596 1.86305 2.31312 6.27089 2.31312 11.6923C2.31312 13.8413 3.01297 15.8335 4.2003 17.4552L2.9635 21.1053L6.76923 19.8962C8.33303 20.9219 10.2069 21.5216 12.2196 21.5216C17.6808 21.5216 22.1237 17.1125 22.1237 11.6935C22.1225 6.2721 17.6784 1.86305 12.2184 1.86305ZM18.1671 14.3843C18.0947 14.2649 17.9017 14.1925 17.6133 14.0501C17.3237 13.9065 15.9035 13.2127 15.6392 13.1186C15.375 13.0232 15.1807 12.975 14.99 13.2609C14.797 13.5481 14.2443 14.1937 14.0742 14.3843C13.9065 14.5762 13.7388 14.5991 13.4492 14.4555C13.1596 14.3131 12.2293 14.0091 11.1264 13.0341C10.2685 12.2739 9.68929 11.3364 9.51915 11.0492C9.35143 10.7632 9.50226 10.6075 9.64585 10.4652C9.77617 10.336 9.93544 10.1309 10.079 9.9644C10.2238 9.79668 10.2721 9.67602 10.3686 9.48537C10.4652 9.29351 10.4169 9.127 10.3445 8.98462C10.2733 8.84223 9.69532 7.43167 9.454 6.85732C9.21508 6.28416 8.97375 6.30588 8.80483 6.30588C8.6371 6.30588 8.32458 6.35535 8.32458 6.35535C8.32458 6.35535 7.7454 6.42655 7.48115 6.71373C7.21689 6.9997 6.47119 7.69351 6.47119 9.10287C6.47119 10.5122 7.50528 11.8757 7.64887 12.0664C7.79366 12.2582 9.64585 15.2459 12.5828 16.3934C15.5185 17.5409 15.5186 17.1572 16.0483 17.1089C16.5768 17.0618 17.7569 16.4163 17.997 15.7466C18.2383 15.0769 18.2383 14.5026 18.1671 14.3843Z" fill="white"/>
</svg>
