<svg width="25" height="24" viewBox="0 0 25 24" fill="none" xmlns="http://www.w3.org/2000/svg">
<rect x="0.500488" width="23.9992" height="24" rx="11.9996" fill="#3BB448"/>
<path fill-rule="evenodd" clip-rule="evenodd" d="M20.4997 11.7949C20.4997 16.0985 16.9835 19.5881 12.6461 19.5881C11.2689 19.5881 9.9746 19.2366 8.84921 18.6188L4.50049 20L5.91788 15.8186C5.20275 14.6441 4.79089 13.2662 4.79089 11.7941C4.79089 7.48959 8.30702 4 12.6453 4C16.9835 4.0008 20.4997 7.4904 20.4997 11.7949ZM12.6461 5.24203C9.00446 5.24203 6.04257 8.18059 6.04257 11.7949C6.04257 13.2276 6.50914 14.5557 7.30069 15.6368L6.47615 18.0702L9.01331 17.2642C10.0558 17.9479 11.3051 18.3477 12.6469 18.3477C16.2877 18.3477 19.2496 15.4083 19.2496 11.7957C19.2488 8.1814 16.2861 5.24203 12.6461 5.24203ZM16.6119 13.5895C16.5636 13.5099 16.4349 13.4616 16.2427 13.3667C16.0496 13.271 15.1028 12.8084 14.9266 12.7457C14.7505 12.6822 14.621 12.65 14.4939 12.8406C14.3651 13.0321 13.9967 13.4624 13.8833 13.5895C13.7715 13.7174 13.6597 13.7327 13.4666 13.637C13.2735 13.5421 12.6533 13.3394 11.9181 12.6894C11.3461 12.1826 10.96 11.5576 10.8466 11.3661C10.7348 11.1755 10.8353 11.0717 10.9311 10.9768C11.0179 10.8907 11.1241 10.7539 11.2198 10.6429C11.3164 10.5311 11.3486 10.4507 11.4129 10.3236C11.4773 10.1957 11.4451 10.0847 11.3968 9.98974C11.3494 9.89482 10.964 8.95445 10.8032 8.57154C10.6439 8.18944 10.483 8.20392 10.3704 8.20392C10.2586 8.20392 10.0502 8.2369 10.0502 8.2369C10.0502 8.2369 9.66409 8.28436 9.48792 8.47582C9.31175 8.66647 8.81462 9.12901 8.81462 10.0686C8.81462 11.0081 9.50401 11.9171 9.59973 12.0442C9.69627 12.1721 10.9311 14.1639 12.889 14.9289C14.8462 15.6939 14.8462 15.4381 15.1993 15.4059C15.5517 15.3746 16.3384 14.9442 16.4985 14.4977C16.6594 14.0513 16.6594 13.6684 16.6119 13.5895Z" fill="white"/>
</svg>
