<svg width="40" height="40" viewBox="0 0 40 40" fill="none" xmlns="http://www.w3.org/2000/svg">
<rect x="-0.000976562" width="39.9988" height="40" rx="19.9994" fill="#3BB448"/>
<path fill-rule="evenodd" clip-rule="evenodd" d="M31.9978 19.6923C31.9978 26.1478 26.7236 31.3822 20.2174 31.3822C18.1517 31.3822 16.2102 30.8549 14.5221 29.9282L7.99902 32L10.1251 25.7279C9.05242 23.9662 8.43462 21.8992 8.43462 19.6911C8.43462 13.2344 13.7088 8 20.2162 8C26.7236 8.00121 31.9978 13.2356 31.9978 19.6923ZM20.2174 9.86305C14.755 9.86305 10.3121 14.2709 10.3121 19.6923C10.3121 21.8413 11.012 23.8335 12.1993 25.4552L10.9625 29.1053L14.7683 27.8962C16.3321 28.9219 18.206 29.5216 20.2186 29.5216C25.6799 29.5216 30.1227 25.1125 30.1227 19.6935C30.1215 14.2721 25.6775 9.86305 20.2174 9.86305ZM26.1661 22.3843C26.0937 22.2649 25.9007 22.1925 25.6123 22.0501C25.3227 21.9065 23.9025 21.2127 23.6382 21.1186C23.374 21.0232 23.1797 20.975 22.9891 21.2609C22.796 21.5481 22.2434 22.1937 22.0732 22.3843C21.9055 22.5762 21.7378 22.5991 21.4482 22.4555C21.1586 22.3131 20.2283 22.0091 19.1254 21.0341C18.2675 20.2739 17.6883 19.3364 17.5182 19.0492C17.3505 18.7632 17.5013 18.6075 17.6449 18.4652C17.7752 18.336 17.9345 18.1309 18.0781 17.9644C18.2229 17.7967 18.2711 17.676 18.3677 17.4854C18.4642 17.2935 18.4159 17.127 18.3435 16.9846C18.2723 16.8422 17.6943 15.4317 17.453 14.8573C17.2141 14.2842 16.9728 14.3059 16.8038 14.3059C16.6361 14.3059 16.3236 14.3554 16.3236 14.3554C16.3236 14.3554 15.7444 14.4265 15.4802 14.7137C15.2159 14.9997 14.4702 15.6935 14.4702 17.1029C14.4702 18.5122 15.5043 19.8757 15.6479 20.0664C15.7927 20.2582 17.6449 23.2459 20.5818 24.3934C23.5176 25.5409 23.5176 25.1572 24.0473 25.1089C24.5758 25.0618 25.7559 24.4163 25.996 23.7466C26.2373 23.0769 26.2373 22.5026 26.1661 22.3843Z" fill="white"/>
</svg>
