<svg width="24" height="24" viewBox="0 0 24 24" fill="none" xmlns="http://www.w3.org/2000/svg">
<circle cx="12" cy="12" r="11.5" stroke="white"/>
<path d="M17.3778 13.0622L18.4858 8.18716C18.5658 7.83518 18.2982 7.5 17.9373 7.5H8.73144L8.51661 6.44977C8.46308 6.18799 8.23273 6 7.96552 6H5.5625C5.25184 6 5 6.25184 5 6.5625V6.9375C5 7.24816 5.25184 7.5 5.5625 7.5H7.20038L8.84682 15.5493C8.45293 15.7758 8.1875 16.2005 8.1875 16.6875C8.1875 17.4124 8.77513 18 9.5 18C10.2249 18 10.8125 17.4124 10.8125 16.6875C10.8125 16.3201 10.6614 15.9882 10.4182 15.75H15.3318C15.0886 15.9882 14.9375 16.3201 14.9375 16.6875C14.9375 17.4124 15.5251 18 16.25 18C16.9749 18 17.5625 17.4124 17.5625 16.6875C17.5625 16.1678 17.2604 15.7188 16.8224 15.5061L16.9517 14.9372C17.0317 14.5852 16.7641 14.25 16.4032 14.25H10.1121L9.95872 13.5H16.8293C17.0919 13.5 17.3196 13.3183 17.3778 13.0622Z" fill="white"/>
</svg>
