<svg width="37" height="36" viewBox="0 0 37 36" fill="none" xmlns="http://www.w3.org/2000/svg">
<circle cx="18" cy="18" r="17.5" transform="matrix(-1 0 0 1 36.5 0)" fill="white" stroke="#D0D5DD"/>
<g clip-path="url(#clip0_218_4914)">
<path d="M30.5 18C30.5 11.3726 25.1274 6 18.5 6C11.8726 6 6.5 11.3725 6.5 18C6.5 23.9895 10.8882 28.954 16.625 29.8542V21.4688H13.5781V18H16.625V15.3563C16.625 12.3488 18.4166 10.6875 21.1575 10.6875C22.4705 10.6875 23.8438 10.9219 23.8438 10.9219V13.875H22.3306C20.8398 13.875 20.375 14.8 20.375 15.7491V18H23.7031L23.1711 21.4688H20.375V29.8542C26.1117 28.954 30.5 23.9896 30.5 18Z" fill="#1877F2"/>
<path d="M23.1711 21.4688L23.7031 18H20.375V15.7491C20.375 14.7999 20.8399 13.875 22.3306 13.875H23.8438V10.9219C23.8438 10.9219 22.4705 10.6875 21.1575 10.6875C18.4166 10.6875 16.625 12.3488 16.625 15.3563V18H13.5781V21.4688H16.625V29.8542C17.2453 29.9514 17.8722 30.0002 18.5 30C19.1278 30.0002 19.7547 29.9514 20.375 29.8542V21.4688H23.1711Z" fill="white"/>
</g>
<defs>
<clipPath id="clip0_218_4914">
<rect width="24" height="24" fill="white" transform="translate(6.5 6)"/>
</clipPath>
</defs>
</svg>
