<svg width="36" height="36" viewBox="0 0 36 36" fill="none" xmlns="http://www.w3.org/2000/svg">
<circle cx="18" cy="18" r="17.5" transform="matrix(-1 0 0 1 36 0)" fill="white" stroke="#D0D5DD"/>
<g clip-path="url(#clip0_218_4894)">
<path d="M24.0781 8H12.9219C10.2036 8 8 10.2036 8 12.9219V24.0781C8 26.7964 10.2036 29 12.9219 29H24.0781C26.7964 29 29 26.7964 29 24.0781V12.9219C29 10.2036 26.7964 8 24.0781 8Z" fill="url(#paint0_radial_218_4894)"/>
<path d="M24.0781 8H12.9219C10.2036 8 8 10.2036 8 12.9219V24.0781C8 26.7964 10.2036 29 12.9219 29H24.0781C26.7964 29 29 26.7964 29 24.0781V12.9219C29 10.2036 26.7964 8 24.0781 8Z" fill="url(#paint1_radial_218_4894)"/>
<path d="M18.5007 10.2969C16.2729 10.2969 15.9933 10.3066 15.1183 10.3464C14.245 10.3865 13.6489 10.5247 13.1274 10.7275C12.5878 10.937 12.1301 11.2173 11.6742 11.6734C11.2178 12.1295 10.9375 12.5871 10.7274 13.1265C10.5239 13.6482 10.3856 14.2445 10.3463 15.1174C10.3071 15.9925 10.2969 16.2722 10.2969 18.5001C10.2969 20.728 10.3067 21.0067 10.3464 21.8817C10.3866 22.755 10.5248 23.3511 10.7275 23.8726C10.9372 24.4122 11.2175 24.8699 11.6736 25.3258C12.1295 25.7822 12.5871 26.0631 13.1263 26.2726C13.6483 26.4755 14.2445 26.6137 15.1176 26.6537C15.9926 26.6935 16.272 26.7033 18.4998 26.7033C20.7278 26.7033 21.0065 26.6935 21.8815 26.6537C22.7548 26.6137 23.3516 26.4755 23.8735 26.2726C24.4129 26.0631 24.8699 25.7822 25.3257 25.3258C25.782 24.8699 26.0622 24.4122 26.2725 23.8729C26.4741 23.3511 26.6126 22.7548 26.6536 21.8818C26.6929 21.0069 26.7031 20.728 26.7031 18.5001C26.7031 16.2722 26.6929 15.9926 26.6536 15.1176C26.6126 14.2443 26.4741 13.6483 26.2725 13.1267C26.0622 12.5871 25.782 12.1295 25.3257 11.6734C24.8694 11.2172 24.4131 10.9369 23.873 10.7276C23.3501 10.5247 22.7536 10.3864 21.8803 10.3464C21.0053 10.3066 20.7267 10.2969 18.4982 10.2969H18.5007ZM17.7648 11.7752C17.9833 11.7748 18.227 11.7752 18.5007 11.7752C20.6911 11.7752 20.9506 11.783 21.8155 11.8223C22.6153 11.8589 23.0495 11.9925 23.3386 12.1048C23.7215 12.2535 23.9944 12.4312 24.2813 12.7184C24.5684 13.0055 24.7461 13.279 24.8952 13.6618C25.0075 13.9505 25.1413 14.3847 25.1777 15.1845C25.217 16.0492 25.2255 16.3089 25.2255 18.4982C25.2255 20.6874 25.217 20.9472 25.1777 21.8119C25.1411 22.6117 25.0075 23.0458 24.8952 23.3347C24.7465 23.7175 24.5684 23.9901 24.2813 24.2771C23.9942 24.5642 23.7216 24.7418 23.3386 24.8906C23.0498 25.0034 22.6153 25.1367 21.8155 25.1732C20.9508 25.2125 20.6911 25.2211 18.5007 25.2211C16.3103 25.2211 16.0507 25.2125 15.186 25.1732C14.3862 25.1363 13.9521 25.0027 13.6627 24.8904C13.2799 24.7417 13.0064 24.564 12.7193 24.2769C12.4322 23.9898 12.2546 23.717 12.1055 23.334C11.9932 23.0452 11.8594 22.6111 11.823 21.8113C11.7837 20.9465 11.7758 20.6868 11.7758 18.4961C11.7758 16.3056 11.7837 16.0472 11.823 15.1824C11.8596 14.3826 11.9932 13.9485 12.1055 13.6593C12.2542 13.2765 12.4322 13.0031 12.7194 12.716C13.0065 12.4289 13.2799 12.2511 13.6628 12.1021C13.9519 11.9893 14.3862 11.856 15.186 11.8193C15.9428 11.7851 16.236 11.7748 17.7648 11.7731V11.7752ZM22.8796 13.1372C22.3361 13.1372 21.8952 13.5777 21.8952 14.1213C21.8952 14.6647 22.3361 15.1056 22.8796 15.1056C23.423 15.1056 23.8639 14.6647 23.8639 14.1213C23.8639 13.5778 23.423 13.1369 22.8796 13.1369V13.1372ZM18.5007 14.2874C16.1743 14.2874 14.2881 16.1736 14.2881 18.5001C14.2881 20.8266 16.1743 22.7119 18.5007 22.7119C20.8272 22.7119 22.7128 20.8266 22.7128 18.5001C22.7128 16.1737 20.8271 14.2874 18.5006 14.2874H18.5007ZM18.5007 15.7657C20.0109 15.7657 21.2352 16.9898 21.2352 18.5001C21.2352 20.0102 20.0109 21.2345 18.5007 21.2345C16.9905 21.2345 15.7664 20.0102 15.7664 18.5001C15.7664 16.9898 16.9905 15.7657 18.5007 15.7657Z" fill="white"/>
</g>
<defs>
<radialGradient id="paint0_radial_218_4894" cx="0" cy="0" r="1" gradientUnits="userSpaceOnUse" gradientTransform="translate(13.5781 30.6174) rotate(-90) scale(20.8126 19.3573)">
<stop stop-color="#FFDD55"/>
<stop offset="0.1" stop-color="#FFDD55"/>
<stop offset="0.5" stop-color="#FF543E"/>
<stop offset="1" stop-color="#C837AB"/>
</radialGradient>
<radialGradient id="paint1_radial_218_4894" cx="0" cy="0" r="1" gradientUnits="userSpaceOnUse" gradientTransform="translate(4.48242 9.51274) rotate(78.681) scale(9.30333 38.3486)">
<stop stop-color="#3771C8"/>
<stop offset="0.128" stop-color="#3771C8"/>
<stop offset="1" stop-color="#6600FF" stop-opacity="0"/>
</radialGradient>
<clipPath id="clip0_218_4894">
<rect width="21" height="21" fill="white" transform="translate(8 8)"/>
</clipPath>
</defs>
</svg>
