<svg width="36" height="36" viewBox="0 0 36 36" fill="none" xmlns="http://www.w3.org/2000/svg">
<circle cx="18" cy="18" r="17.5" transform="matrix(-1 0 0 1 36 0)" fill="white" stroke="#D0D5DD"/>
<g clip-path="url(#clip0_218_4907)">
<path d="M6.50988 17.8563C6.50932 19.8728 7.0362 21.8417 8.03806 23.5771L6.41406 29.5066L12.4822 27.9156C14.1605 28.8292 16.041 29.308 17.9519 29.3081H17.9569C24.2653 29.3081 29.4005 24.1748 29.4032 17.8653C29.4044 14.8079 28.2148 11.9329 26.0535 9.76997C23.8926 7.60718 21.0186 6.41546 17.9565 6.41406C11.6474 6.41406 6.51257 11.5471 6.50997 17.8563" fill="url(#paint0_linear_218_4907)"/>
<path d="M6.09953 17.8527C6.09888 19.9417 6.64465 21.981 7.68223 23.7786L6 29.9207L12.2857 28.2726C14.0176 29.2168 15.9675 29.7147 17.9517 29.7154H17.9568C24.4915 29.7154 29.8112 24.3975 29.814 17.8621C29.8151 14.6949 28.5827 11.7166 26.3442 9.47609C24.1054 7.23591 21.1287 6.0013 17.9568 6C11.421 6 6.10214 11.3172 6.09953 17.8527ZM9.84279 23.469L9.60809 23.0965C8.62149 21.5277 8.10074 19.7149 8.10149 17.8534C8.10363 12.4213 12.5245 8.00186 17.9606 8.00186C20.5931 8.00298 23.0672 9.02921 24.928 10.8912C26.7887 12.7533 27.8127 15.2287 27.812 17.8614C27.8096 23.2935 23.3887 27.7135 17.9568 27.7135H17.9529C16.1843 27.7126 14.4497 27.2376 12.9369 26.34L12.5769 26.1265L8.84688 27.1045L9.84279 23.4689V23.469Z" fill="url(#paint1_linear_218_4907)"/>
<path d="M14.9911 12.8977C14.7691 12.4044 14.5355 12.3945 14.3245 12.3858C14.1516 12.3784 13.9541 12.3789 13.7567 12.3789C13.5591 12.3789 13.2381 12.4532 12.9667 12.7495C12.6951 13.0461 11.9297 13.7627 11.9297 15.2203C11.9297 16.678 12.9914 18.0866 13.1394 18.2845C13.2875 18.482 15.1889 21.5689 18.2003 22.7564C20.703 23.7433 21.2123 23.547 21.7555 23.4975C22.2987 23.4482 23.5084 22.7811 23.7552 22.0892C24.0022 21.3975 24.0022 20.8046 23.9281 20.6807C23.8541 20.5572 23.6565 20.4831 23.3602 20.335C23.0638 20.1868 21.6073 19.4701 21.3357 19.3712C21.0641 19.2724 20.8666 19.2231 20.669 19.5198C20.4715 19.8159 19.9041 20.4831 19.7312 20.6807C19.5584 20.8787 19.3855 20.9034 19.0893 20.7552C18.7928 20.6065 17.8387 20.2941 16.7067 19.2849C15.826 18.4996 15.2314 17.5298 15.0585 17.2331C14.8857 16.937 15.04 16.7764 15.1886 16.6288C15.3217 16.496 15.4849 16.2828 15.6332 16.1099C15.7809 15.9369 15.8302 15.8134 15.929 15.6158C16.0279 15.4181 15.9784 15.2451 15.9045 15.0969C15.8302 14.9487 15.2545 13.4835 14.9911 12.8977Z" fill="white"/>
</g>
<defs>
<linearGradient id="paint0_linear_218_4907" x1="1155.87" y1="2315.67" x2="1155.87" y2="6.41406" gradientUnits="userSpaceOnUse">
<stop stop-color="#1FAF38"/>
<stop offset="1" stop-color="#60D669"/>
</linearGradient>
<linearGradient id="paint1_linear_218_4907" x1="1196.7" y1="2398.07" x2="1196.7" y2="6" gradientUnits="userSpaceOnUse">
<stop stop-color="#F9F9F9"/>
<stop offset="1" stop-color="white"/>
</linearGradient>
<clipPath id="clip0_218_4907">
<rect width="23.814" height="24" fill="white" transform="translate(6 6)"/>
</clipPath>
</defs>
</svg>
