<svg width="24" height="24" viewBox="0 0 24 24" fill="none" xmlns="http://www.w3.org/2000/svg">
<path d="M0 12C0 8.8174 1.26428 5.76516 3.51472 3.51472C5.76516 1.26428 8.8174 0 12 0C15.1826 0 18.2348 1.26428 20.4853 3.51472C22.7357 5.76516 24 8.8174 24 12C24 15.1826 22.7357 18.2348 20.4853 20.4853C18.2348 22.7357 15.1826 24 12 24C8.8174 24 5.76516 22.7357 3.51472 20.4853C1.26428 18.2348 0 15.1826 0 12ZM12 1.72127C10.0077 1.72134 8.05836 2.30041 6.38912 3.38802C4.71988 4.47563 3.40269 6.02491 2.5978 7.84739C1.79291 9.66986 1.53501 11.687 1.85547 13.6533C2.17593 15.6197 3.06094 17.4505 4.40284 18.9231C5.2175 17.6471 6.34066 16.597 7.66852 15.8699C8.99638 15.1428 10.4861 14.7622 12 14.7631C13.5139 14.762 15.0037 15.1426 16.3316 15.8697C17.6595 16.5968 18.7826 17.647 19.5972 18.9231C20.9391 17.4505 21.8241 15.6197 22.1445 13.6533C22.465 11.687 22.2071 9.66986 21.4022 7.84739C20.5973 6.02491 19.2801 4.47563 17.6109 3.38802C15.9416 2.30041 13.9923 1.72134 12 1.72127ZM18.3089 20.1154C17.6678 19.0103 16.7474 18.0932 15.6402 17.456C14.5329 16.8187 13.2776 16.4836 12 16.4844C10.7224 16.4836 9.46712 16.8187 8.35985 17.456C7.25257 18.0932 6.33224 19.0103 5.69108 20.1154C7.49346 21.5208 9.71445 22.2824 12 22.2787C14.3772 22.2787 16.5659 21.4706 18.3089 20.1154ZM7.74211 10.1972C7.74211 9.06793 8.19071 7.98492 8.98922 7.18641C9.78773 6.3879 10.8707 5.9393 12 5.9393C13.1293 5.9393 14.2123 6.3879 15.0108 7.18641C15.8093 7.98492 16.2579 9.06793 16.2579 10.1972C16.2579 11.3265 15.8093 12.4095 15.0108 13.208C14.2123 14.0065 13.1293 14.4551 12 14.4551C10.8707 14.4551 9.78773 14.0065 8.98922 13.208C8.19071 12.4095 7.74211 11.3265 7.74211 10.1972ZM12 7.66058C11.6669 7.66058 11.337 7.72619 11.0293 7.85367C10.7215 7.98114 10.4419 8.16799 10.2063 8.40353C9.9708 8.63908 9.78395 8.91871 9.65647 9.22647C9.529 9.53423 9.46339 9.86408 9.46339 10.1972C9.46339 10.5303 9.529 10.8602 9.65647 11.1679C9.78395 11.4757 9.9708 11.7553 10.2063 11.9908C10.4419 12.2264 10.7215 12.4132 11.0293 12.5407C11.337 12.6682 11.6669 12.7338 12 12.7338C12.6728 12.7338 13.3179 12.4666 13.7937 11.9908C14.2694 11.5151 14.5366 10.8699 14.5366 10.1972C14.5366 9.52444 14.2694 8.87924 13.7937 8.40353C13.3179 7.92783 12.6728 7.66058 12 7.66058Z" fill="white"/>
<path d="M0 12C0 8.8174 1.26428 5.76516 3.51472 3.51472C5.76516 1.26428 8.8174 0 12 0C15.1826 0 18.2348 1.26428 20.4853 3.51472C22.7357 5.76516 24 8.8174 24 12C24 15.1826 22.7357 18.2348 20.4853 20.4853C18.2348 22.7357 15.1826 24 12 24C8.8174 24 5.76516 22.7357 3.51472 20.4853C1.26428 18.2348 0 15.1826 0 12ZM12 1.72127C10.0077 1.72134 8.05836 2.30041 6.38912 3.38802C4.71988 4.47563 3.40269 6.02491 2.5978 7.84739C1.79291 9.66986 1.53501 11.687 1.85547 13.6533C2.17593 15.6197 3.06094 17.4505 4.40284 18.9231C5.2175 17.6471 6.34066 16.597 7.66852 15.8699C8.99638 15.1428 10.4861 14.7622 12 14.7631C13.5139 14.762 15.0037 15.1426 16.3316 15.8697C17.6595 16.5968 18.7826 17.647 19.5972 18.9231C20.9391 17.4505 21.8241 15.6197 22.1445 13.6533C22.465 11.687 22.2071 9.66986 21.4022 7.84739C20.5973 6.02491 19.2801 4.47563 17.6109 3.38802C15.9416 2.30041 13.9923 1.72134 12 1.72127ZM18.3089 20.1154C17.6678 19.0103 16.7474 18.0932 15.6402 17.456C14.5329 16.8187 13.2776 16.4836 12 16.4844C10.7224 16.4836 9.46712 16.8187 8.35985 17.456C7.25257 18.0932 6.33224 19.0103 5.69108 20.1154C7.49346 21.5208 9.71445 22.2824 12 22.2787C14.3772 22.2787 16.5659 21.4706 18.3089 20.1154ZM7.74211 10.1972C7.74211 9.06793 8.19071 7.98492 8.98922 7.18641C9.78773 6.3879 10.8707 5.9393 12 5.9393C13.1293 5.9393 14.2123 6.3879 15.0108 7.18641C15.8093 7.98492 16.2579 9.06793 16.2579 10.1972C16.2579 11.3265 15.8093 12.4095 15.0108 13.208C14.2123 14.0065 13.1293 14.4551 12 14.4551C10.8707 14.4551 9.78773 14.0065 8.98922 13.208C8.19071 12.4095 7.74211 11.3265 7.74211 10.1972ZM12 7.66058C11.6669 7.66058 11.337 7.72619 11.0293 7.85367C10.7215 7.98114 10.4419 8.16799 10.2063 8.40353C9.9708 8.63908 9.78395 8.91871 9.65647 9.22647C9.529 9.53423 9.46339 9.86408 9.46339 10.1972C9.46339 10.5303 9.529 10.8602 9.65647 11.1679C9.78395 11.4757 9.9708 11.7553 10.2063 11.9908C10.4419 12.2264 10.7215 12.4132 11.0293 12.5407C11.337 12.6682 11.6669 12.7338 12 12.7338C12.6728 12.7338 13.3179 12.4666 13.7937 11.9908C14.2694 11.5151 14.5366 10.8699 14.5366 10.1972C14.5366 9.52444 14.2694 8.87924 13.7937 8.40353C13.3179 7.92783 12.6728 7.66058 12 7.66058Z" stroke="#292929"/>
</svg>
